<svg xmlns="http://www.w3.org/2000/svg" viewBox="0 0 475.28 61.96"><title>logo</title><path d="M97.06 29.33a7 7 0 0 0-6.91-4.52c-4.11.07-8.35 3.08-8.35 9s4.24 9.1 8.35 9.1a7.21 7.21 0 0 0 7.05-5.13h9.1c-1.37 8.83-8.83 13.28-16.43 13.35-8.69.07-17.59-5.68-17.59-17.32s9-17.39 17.66-17.39c7.46 0 14.72 4.31 16.22 12.94zM128.48 51.1c-8.76 0-17.59-5.75-17.59-17.32s8.63-17.25 17.32-17.32 17.66 5.68 17.66 17.32-8.69 17.32-17.39 17.32m-.2-8.35c4 .07 8.08-2.94 8.08-9s-3.83-8.9-7.87-8.9-8.08 2.94-8.08 8.9 3.9 9 7.87 9" fill="#e84137"/><path fill="#62c6c2" d="M161.88 50.9l-13.55-32.38v-1.09h10.2l3.49 9.64 2.53 7.53h.14l7.39-16.42h3.63l7.46 16.42h.2l2.47-7.53 3.22-9.64h10.33v1.09L185.7 50.9h-3.63l-4.1-8.08-4.11-8.69-3.97 8.96-3.76 7.81h-4.25zM219.45 51.1c-8.76 0-17.59-5.75-17.59-17.32s8.62-17.25 17.32-17.32 17.66 5.68 17.66 17.32-8.69 17.32-17.39 17.32m-.21-8.35c4 .07 8.08-2.94 8.08-9s-3.83-8.9-7.87-8.9-8.08 2.94-8.08 8.9 3.9 9 7.87 9M263.33 16.4a11.46 11.46 0 0 1 7 2.12l-2.12 8a10.38 10.38 0 0 0-6.16-1.78 7.38 7.38 0 0 0-7.73 7.8V50.4h-9.36V27.14c0-2.74-.27-4.52-3.29-4v-5.88c4.79-1.1 11.84-1.1 12.39 4.79 1.37-3.76 5.2-5.61 9.24-5.61M287.29 29.54c7.6 0 9.51-5.41 9.51-12.18h9c.2 7-1.37 12.87-7.87 16.29l9.45 15.74v1h-9.62l-7.87-13.69a8.52 8.52 0 0 1-2.74.41h-2.19v13.28h-9.51v-50h9.51v29.16zM342.96 35.91h-22.34c.34 5.13 4.17 7.12 8.76 7.46a23.58 23.58 0 0 0 4.38-.07 28.77 28.77 0 0 0 7.87-2l1.1 7a30.5 30.5 0 0 1-12.8 2.94c-11.09.21-18.89-6.57-18.89-17.73.21-11.5 8.56-16.91 17.32-16.91 12 0 17.18 8.08 14.65 19.3m-22.31-6.16h14.51c.2-4.31-3.29-5.82-6.84-5.82s-6.91 2-7.67 5.82M370.25 16.4a11.47 11.47 0 0 1 7 2.12l-2.12 8a10.37 10.37 0 0 0-6.16-1.78 7.38 7.38 0 0 0-7.73 7.8V50.4h-9.38V27.14c0-2.74-.27-4.52-3.29-4v-5.88c4.79-1.1 11.84-1.1 12.39 4.79 1.37-3.76 5.2-5.61 9.24-5.61"/><path d="M376.45 48.29a2.91 2.91 0 1 1 2.89 2.65 2.68 2.68 0 0 1-2.89-2.65M397.47 50.84c-6.52 0-12.42-4.39-12.42-12.62s6-12.59 12.52-12.59 12.39 4.37 12.39 12.58c0 7.43-5.13 12.62-12.52 12.62m.07-4.78c3.8 0 7.25-2.51 7.25-7.85s-3.42-7.78-7.22-7.78-7.25 2.62-7.25 7.78c0 5.33 3.31 7.85 7.22 7.85M434.51 49.65v.73h-5.55l-5-8.06h-4.36v8.06h-5.23V26h10.43a8.17 8.17 0 0 1 8.61 8.37 7.77 7.77 0 0 1-4.36 7.18zM424.71 38a3.55 3.55 0 0 0 3.59-3.8 3.49 3.49 0 0 0-3.59-3.7h-5.23V38zM449.43 25.69c4.85 0 9.69 2.34 11.09 8h-5.13c-1.22-2.37-3.17-3.31-6-3.31-4.57 0-7.15 3.45-7.15 7.81 0 4.64 2.79 7.78 7.15 7.78 3.35 0 5.79-1 6.84-4.67h-6.66v-4.39h11.44a16.83 16.83 0 0 1-.73 6.84c-1.85 4.92-6.21 7-10.88 7-6.45 0-12.45-4.43-12.45-12.52s6-12.52 12.45-12.52" fill="#cbcbcd"/><path d="M60.7 22.47a31 31 0 0 0-2.63-6.48c-.08.3-.47.3-.94-.1-.82-.68-1.88-2-2.33-2.46-.94-.94-1.48 0-1.1.58.82 1.3 1.48 2.12 3.66 5.68 1.08 1.77-.41 2-1.22.81-.54-.76-4.27-5.58-4.27-5.58-.85-1.1-1.63-.06-1.2.56s3.11 4.56 4.07 6.45-.45 2.26-1.32 1c-.41-.58-3.63-5.47-4.35-6.12s-1.47-.19-.5 1.24c1.18 1.71 2 3.07 2 3.07 2.33 3.37.21 3.14-.2 2.59s-3.92-5.36-3.92-5.36c-.86-1.28-1.25-.37-1.19-.09a15.15 15.15 0 0 0 .65 1.49c1.08 1.77.84 2.51.28 2.43A17.57 17.57 0 0 1 48 26.93c.06.24.12.49.17.74a13 13 0 0 1 .18 1.54 17.42 17.42 0 0 1-.63 6.41 16.9 16.9 0 0 1-7.09 9.77l-.93.47a15.71 15.71 0 0 1-7.58 2 2 2 0 0 0-1.25.39c-.51.45-.08 1.12 2.15 1.05a15.06 15.06 0 0 1 1.62.17c.27.08.88.87-.66 1l-6.6.77c-.67.09-1.93 1.82 2.16 1.45 0 0 1.59-.06 3.66-.24 1.72-.15 1.93.68.83 1-.92.31-6.76.71-7.47.78-1.51.15-1.88 1.56.24 1.66s6.87-.3 7.62-.37 1.27 1.13-.11 1.32c0 0-6 .87-7 1-1.39.14-2 1.54.11 1.46 4.18-.14 5.21-.32 6.75-.39.69 0 1.25.89 0 1.25-.61.17-2.29.44-3.29.82-.5.19-.7.47-.61.68s.26.26.61.29c1.26.1 9.15-.58 13.5-3.39a30.91 30.91 0 0 0 16.3-36.09" fill="#62c6c2"/><path d="M45.34 20.81l.14.21-.14-.21M58.07 16q-.54-1-1.17-1.94.62 1 1.17 2M46.18 22.2c-.22-.4-.47-.79-.72-1.18.23.36.47.75.7 1.17M45.29 20.75v.06-.06" fill="#f0655d"/><path d="M57.96 15.42a34.33 34.33 0 0 0-8.36-9.1c-.29-.23-.8-.58-1.47-1.11-2.19-1.41-9.73-6.7-22.8-4.8a32 32 0 0 0-13.5 6 30.73 30.73 0 0 0-9.3 12.05c-.34.8-.66 1.62-.94 2.46a30.93 30.93 0 0 0 28.68 40.73c-.09-.21.11-.49.61-.68 1-.38 2.68-.65 3.29-.82 1.29-.36.73-1.28 0-1.25-1.53.08-2.57.25-6.75.39-2.07.07-1.5-1.32-.11-1.46.93-.1 7-1 7-1 1.38-.19.86-1.39.11-1.32s-5.5.46-7.62.37-1.75-1.5-.24-1.65c.71-.07 6.55-.47 7.47-.78 1.1-.37.89-1.19-.83-1-2.07.18-3.66.24-3.66.24-4.08.37-2.83-1.36-2.16-1.45l6.6-.77c1.54-.12.93-.91.66-1a15.23 15.23 0 0 0-1.62-.16c-2.24.07-2.67-.6-2.15-1.05a17.51 17.51 0 1 1 8-33.09 16.56 16.56 0 0 1 6.18 6.1 1.85 1.85 0 0 0 1.07.93c-.23-.42-.47-.81-.7-1.17.26.38.5.78.73 1.18.55.08.79-.66-.28-2.43a15.08 15.08 0 0 1-.65-1.49c-.06-.28.32-1.2 1.19.09 0 0 3.56 4.89 3.92 5.36s2.53.78.2-2.59c0 0-.83-1.36-2-3.07-1-1.43-.36-2 .5-1.24s3.94 5.54 4.35 6.12c.88 1.24 2.29.87 1.32-1s-3.64-5.83-4.07-6.45.36-1.66 1.2-.56c0 0 3.72 4.82 4.26 5.58.81 1.14 2.3 1 1.22-.81-2.18-3.57-2.84-4.38-3.66-5.68-.37-.58.16-1.53 1.1-.58.45.44 1.51 1.78 2.33 2.46.48.4.87.39.94.1q-.54-1-1.17-2 .64 1 1.17 1.94a.93.93 0 0 0-.11-.54" fill="#e84137"/><path d="M464.45 26.85V26h4.39v.86h-1.68v4.29h-1v-4.29zm6.73-.86l1.31 3.68 1.32-3.68h1.46v5.15h-.94V27l-1.37 4.14h-.82L470.65 27v4.15h-.94V26z" fill="#cbcbcd"/></svg>