<svg id="Layer_1" data-name="Layer 1" xmlns="http://www.w3.org/2000/svg" width="398.08" height="177.76" viewBox="0 0 298.6 133.36"><defs><style>.cls-1{fill:#004990}.cls-2{fill:#c80c47}</style></defs><path class="cls-1" d="M102.85 14.57c0-5.64 0-6.68-.07-7.86s-.37-1.85-1.6-2.11a7.63 7.63 0 0 0-1.45-.11c-.41 0-.63-.07-.63-.33s.26-.33.82-.33c2 0 4.3.11 5.34.11 1.52 0 3.67-.11 5.38-.11 4.64 0 6.31 1.56 6.9 2.11a6.44 6.44 0 0 1 1.85 4.41 8.73 8.73 0 0 1-9.12 9 5.47 5.47 0 0 1-.78 0c-.19 0-.45-.07-.45-.33s.26-.41 1-.41c2.08 0 5-2.34 5-6.12a7.14 7.14 0 0 0-2.19-5.56 5.51 5.51 0 0 0-3.71-1.45 5.27 5.27 0 0 0-1.45.15c-.19.07-.3.3-.3.7v14.76c0 3.41 0 6.34.19 7.94.11 1 .33 1.85 1.45 2a15.7 15.7 0 0 0 1.89.15c.41 0 .59.11.59.3s-.3.37-.71.37c-2.45 0-4.78-.11-5.75-.11s-3.19.11-4.67.11c-.48 0-.74-.11-.74-.37s.15-.3.59-.3a6.08 6.08 0 0 0 1.34-.15c.74-.15.93-1 1.08-2 .19-1.56.19-4.49.19-7.9zM126.2 18.34c0-4.51 0-5.34-.06-6.29s-.3-1.48-1.28-1.69a6.07 6.07 0 0 0-1.16-.09c-.33 0-.5-.06-.5-.27s.21-.27.65-.27c1.57 0 3.44.09 4.27.09h7.42a11.76 11.76 0 0 0 1.28-.18 2.78 2.78 0 0 1 .47-.12c.15 0 .18.12.18.27a18.93 18.93 0 0 0-.24 1.93c0 .3-.09 1.6-.15 2 0 .15-.09.33-.3.33s-.27-.15-.27-.42a3.19 3.19 0 0 0-.18-1.07c-.21-.53-.5-.89-2-1.07-.5-.06-3.62-.12-4.21-.12-.15 0-.21.09-.21.3v7.51c0 .21 0 .33.21.33.65 0 4.07 0 4.75-.06a2.07 2.07 0 0 0 1.42-.45c.21-.24.33-.39.47-.39s.21.06.21.24-.15.65-.24 2.17c-.06.59-.12 1.78-.12 2s0 .56-.27.56a.24.24 0 0 1-.27-.27 7.71 7.71 0 0 0-.12-1.07c-.15-.59-.56-1-1.66-1.16-.56-.06-3.5-.09-4.21-.09-.15 0-.18.12-.18.3V28.23c.06 2 .53 2.49 3.56 2.49a7.53 7.53 0 0 0 2.79-.36c.77-.36 1.13-1 1.34-2.2.06-.33.12-.44.33-.44s.24.24.24.53a23.19 23.19 0 0 1-.39 3.29c-.21.77-.47.77-1.6.77-4.48 0-6.47-.18-8.22-.18-.68 0-2.55.09-3.74.09-.39 0-.59-.09-.59-.3s.12-.24.47-.24a4.86 4.86 0 0 0 1.07-.12c.59-.12.74-.77.86-1.63.15-1.25.15-3.59.15-6.32zM141.71 21c0-5.07 3.35-11.63 12.26-11.63 7.39 0 12 4.3 12 11.1s-4.75 12.17-12.29 12.17c-8.53-.06-11.97-6.44-11.97-11.64zm20.09.56c0-6.65-3.83-10.77-8.69-10.77-3.41 0-7.3 1.9-7.3 9.29 0 6.17 3.41 11.07 9.11 11.07 2.08-.05 6.88-1.06 6.88-9.63zM172.16 18.34c0-4.51 0-5.34-.06-6.29s-.3-1.48-1.28-1.69a6.07 6.07 0 0 0-1.16-.09c-.33 0-.5-.06-.5-.27s.21-.27.65-.27c1.57 0 3.44.09 4.27.09 1.22 0 2.94-.09 4.3-.09 3.71 0 5 1.25 5.52 1.69a5.16 5.16 0 0 1 1.49 3.58 7 7 0 0 1-7.3 7.18 4.38 4.38 0 0 1-.62 0c-.15 0-.36-.06-.36-.27s.21-.33.83-.33c1.66 0 4-1.87 4-4.9a5.71 5.71 0 0 0-1.75-4.45 4.41 4.41 0 0 0-3-1.16 4.2 4.2 0 0 0-1.16.12c-.15.06-.24.24-.24.56v11.81c0 2.73 0 5.07.15 6.35.09.83.27 1.48 1.16 1.6a12.56 12.56 0 0 0 1.51.12c.33 0 .47.09.47.24s-.24.3-.56.3c-2 0-3.83-.09-4.6-.09s-2.55.09-3.74.09c-.39 0-.59-.09-.59-.3s.12-.24.48-.24a4.86 4.86 0 0 0 1.07-.12c.59-.12.74-.77.86-1.63.15-1.25.15-3.59.15-6.32zM195.3 23.56c0 3.8 0 5.85.62 6.38s1.28.65 3.59.65c1.57 0 2.73 0 3.47-.83a3.72 3.72 0 0 0 .77-1.78c0-.27.09-.45.33-.45s.24.15.24.5a23.41 23.41 0 0 1-.44 3.41c-.18.65-.33.8-1.87.8-4.27 0-6.23-.18-8.64-.18-.68 0-2.55.09-3.74.09-.39 0-.59-.09-.59-.3s.12-.24.48-.24a4.87 4.87 0 0 0 1.07-.12c.59-.12.74-.77.86-1.63.15-1.25.15-3.59.15-6.32v-5.2c0-4.51 0-5.34-.06-6.29s-.3-1.48-1.28-1.69a4.38 4.38 0 0 0-1-.09c-.33 0-.5-.06-.5-.27s.21-.27.65-.27c1.39 0 3.26.09 4.07.09s2.88-.09 4-.09c.42 0 .62.06.62.27s-.18.27-.53.27a7.87 7.87 0 0 0-1.16.09c-.8.15-1 .65-1.1 1.69s-.06 1.78-.06 6.29zM209.55 18.34c0-4.51 0-5.34-.06-6.29s-.3-1.48-1.28-1.69a6.09 6.09 0 0 0-1.16-.09c-.33 0-.5-.06-.5-.27s.21-.27.65-.27c1.57 0 3.44.09 4.27.09h7.42a11.76 11.76 0 0 0 1.28-.18 2.78 2.78 0 0 1 .47-.12c.15 0 .18.12.18.27a18.93 18.93 0 0 0-.24 1.93c0 .3-.09 1.6-.15 2 0 .15-.09.33-.3.33s-.27-.15-.27-.42a3.18 3.18 0 0 0-.18-1.07c-.21-.53-.5-.89-2-1.07-.5-.06-3.62-.12-4.21-.12-.15 0-.21.09-.21.3v7.51c0 .21 0 .33.21.33.65 0 4.07 0 4.75-.06a2.07 2.07 0 0 0 1.42-.45c.21-.24.33-.39.47-.39s.21.06.21.24-.15.65-.24 2.17c-.06.59-.12 1.78-.12 2s0 .56-.27.56a.24.24 0 0 1-.27-.27 7.71 7.71 0 0 0-.12-1.07c-.15-.59-.56-1-1.66-1.16-.56-.06-3.5-.09-4.21-.09-.15 0-.18.12-.18.3V28.23c.06 2 .53 2.49 3.56 2.49a7.53 7.53 0 0 0 2.79-.36c.77-.36 1.13-1 1.34-2.2.06-.33.12-.44.33-.44s.24.24.24.53a23.25 23.25 0 0 1-.39 3.29c-.21.77-.47.77-1.6.77-4.48 0-6.47-.18-8.22-.18-.68 0-2.55.09-3.74.09-.39 0-.59-.09-.59-.3s.12-.24.47-.24a4.86 4.86 0 0 0 1.07-.12c.59-.12.74-.77.86-1.63.15-1.25.15-3.59.15-6.32zM151 55.3c0 3.56 0 6.34.19 7.9.11 1.08.33 1.89 1.45 2a15.59 15.59 0 0 0 1.85.15c.48 0 .63.11.63.3s-.26.37-.82.37c-2.34 0-4.67-.11-5.64-.11s-3.3.11-4.71.11c-.52 0-.78-.07-.78-.37s.15-.3.56-.3a6 6 0 0 0 1.34-.15c.74-.15.93-1 1.08-2 .19-1.56.19-4.34.19-7.9v-6.53c0-5.64 0-6.68-.07-7.86s-.37-1.85-1.59-2.11a7.62 7.62 0 0 0-1.45-.11c-.37 0-.63-.07-.63-.3s.3-.37.85-.37c1.93 0 4.27.11 5.34.11h9.79a7.09 7.09 0 0 0 1.52-.15c.22-.07.41-.22.59-.22a.3.3 0 0 1 .26.33c0 .26-.19.7-.3 1.67 0 .37-.11 2.56-.19 3s-.11.52-.37.52-.33-.19-.37-.59a3.64 3.64 0 0 0-.22-1.41 2.68 2.68 0 0 0-2.5-1.15l-5.7-.13c-.22 0-.33.11-.33.52v9.27c0 .22 0 .33.26.33h6.42a1.94 1.94 0 0 0 1.59-.67c.19-.22.26-.37.48-.37s.22.11.22.33-.19 1.15-.3 2.3c-.07.74-.15 2.45-.15 2.71s0 .71-.37.71-.3-.26-.3-.52a4.08 4.08 0 0 0-.22-1.15 2.18 2.18 0 0 0-1.89-1.33c-.93-.11-4.86-.11-5.49-.11-.19 0-.26.07-.26.33zM165.43 55.16c0-5.07 3.35-11.63 12.26-11.63 7.39 0 12 4.3 12 11.1S184.94 66.8 177.4 66.8c-8.53-.01-11.97-6.39-11.97-11.64zm20.09.56c0-6.65-3.83-10.77-8.69-10.77-3.41 0-7.3 1.9-7.3 9.29 0 6.17 3.41 11.07 9.11 11.07 2.07 0 6.88-1.01 6.88-9.59zM195.88 52.55c0-4.51 0-5.34-.06-6.29s-.3-1.48-1.28-1.69a6.08 6.08 0 0 0-1.16-.09c-.33 0-.5-.06-.5-.27s.21-.27.65-.27c1.57 0 3.44.09 4.07.09 1 0 3.26-.09 4.18-.09a9.49 9.49 0 0 1 5.46 1.28 5.14 5.14 0 0 1 2 4.07c0 2.2-.92 4.21-3.92 6.65 2.64 3.32 4.69 6 6.44 7.8a5.91 5.91 0 0 0 3.32 2 4.65 4.65 0 0 0 .83.09c.24 0 .36.09.36.24s-.21.3-.56.3h-2.82a6 6 0 0 1-3.18-.56c-1.28-.68-2.4-2.08-4.07-4.36-1.19-1.63-2.55-3.65-2.94-4.09a.62.62 0 0 0-.53-.21l-2.58-.06c-.15 0-.24.06-.24.24v.42c0 2.76 0 5.1.15 6.35.09.86.27 1.51 1.16 1.63a13.58 13.58 0 0 0 1.45.12c.24 0 .36.09.36.24s-.21.3-.59.3c-1.72 0-3.92-.09-4.36-.09s-2.43.09-3.62.09c-.39 0-.59-.09-.59-.3s.12-.24.47-.24a4.83 4.83 0 0 0 1.07-.12c.59-.12.74-.77.86-1.63.15-1.25.15-3.59.15-6.32zm3.5 2.34c0 .33.06.45.27.53a7.81 7.81 0 0 0 2.26.3 3 3 0 0 0 2.11-.5c.89-.65 1.75-2 1.75-4.45 0-4.21-2.79-5.43-4.54-5.43a6.52 6.52 0 0 0-1.57.12c-.21.06-.27.18-.27.42zM226.44 48.87l-2.87.08c-1.11 0-1.58.13-1.87.56a2.29 2.29 0 0 0-.33.67c0 .15-.1.23-.21.23s-.17-.1-.17-.31.37-2.06.4-2.21.12-.37.23-.37a4.45 4.45 0 0 0 .83.23c.56.06 1.29.1 1.92.1H232a9.27 9.27 0 0 0 1.33-.1 4.54 4.54 0 0 1 .52-.1c.13 0 .15.12.15.4s-.06 1.73-.06 2.23c0 .19-.06.31-.17.31s-.19-.1-.21-.38V50c0-.5-.56-1-2.27-1.08l-2.42-.06v7.88c0 1.77 0 3.29.1 4.11.06.54.17 1 .75 1a8.18 8.18 0 0 0 1 .08c.21 0 .31.06.31.15s-.15.19-.37.19c-1.27 0-2.48-.06-3-.06s-1.65.06-2.42.06c-.25 0-.38-.06-.38-.19s.08-.15.31-.15a3.16 3.16 0 0 0 .69-.08c.38-.08.5-.5.56-1.06.1-.81.1-2.33.1-4.1zM247.4 53.91c.06 0 .12 0 .12-.13v-.4-4.08c0-.62-.19-1-.83-1.1a3.94 3.94 0 0 0-.75-.06c-.21 0-.33 0-.33-.17s.13-.17.4-.17c1 0 2.25.06 2.77.06s1.67-.06 2.42-.06c.27 0 .4 0 .4.17s-.12.17-.35.17a3.41 3.41 0 0 0-.56.06c-.52.1-.67.42-.71 1.1s0 1.15 0 4.08v3.38c0 1.77 0 3.29.1 4.11.06.54.17 1 .75 1a8.18 8.18 0 0 0 1 .08c.21 0 .31.06.31.15s-.15.19-.38.19c-1.25 0-2.46-.06-3-.06s-1.65.06-2.4.06c-.27 0-.4-.06-.4-.19s.08-.15.31-.15a3.16 3.16 0 0 0 .69-.08c.38-.08.48-.5.56-1.06.1-.81.1-2.33.1-4.1v-1.65a.11.11 0 0 0-.12-.12h-7.34a.1.1 0 0 0-.12.12v1.69c0 1.77 0 3.29.1 4.11.06.54.17 1 .75 1a8.17 8.17 0 0 0 1 .08c.21 0 .31.06.31.15s-.15.19-.38.19c-1.25 0-2.46-.06-3-.06s-1.65.06-2.42.06c-.25 0-.38-.06-.38-.19s.08-.15.31-.15a3.16 3.16 0 0 0 .69-.08c.38-.08.48-.5.56-1.06.1-.81.1-2.33.1-4.1v-3.33-4.08c0-.62-.19-1-.83-1.1a3.94 3.94 0 0 0-.75-.06c-.21 0-.33 0-.33-.17s.13-.17.4-.17c1 0 2.25.06 2.77.06s1.67-.06 2.42-.06c.27 0 .4 0 .4.17s-.12.17-.35.17a3.41 3.41 0 0 0-.56.06c-.52.1-.67.42-.71 1.1s0 1.15 0 4.08v.4c0 .1.06.13.12.13zM256.23 53.37v-4.08c0-.62-.19-1-.83-1.1a3.93 3.93 0 0 0-.75-.06c-.21 0-.33 0-.33-.17s.13-.17.42-.17c1 0 2.23.06 2.77.06h4.81a7.82 7.82 0 0 0 .83-.12 1.77 1.77 0 0 1 .31-.08c.1 0 .12.08.12.17a12.29 12.29 0 0 0-.15 1.25c0 .19-.06 1-.1 1.27s-.06.21-.19.21-.17-.1-.17-.27a2.06 2.06 0 0 0-.12-.69c-.13-.35-.33-.58-1.29-.69-.33 0-2.35-.08-2.73-.08-.1 0-.13.06-.13.19v4.87c0 .13 0 .21.13.21h3.08a1.34 1.34 0 0 0 .92-.29c.13-.15.21-.25.31-.25s.13 0 .13.15-.1.42-.15 1.4c0 .38-.08 1.15-.08 1.29s0 .37-.17.37a.15.15 0 0 1-.17-.17 5.11 5.11 0 0 0-.08-.69c-.1-.38-.37-.67-1.08-.75-.37 0-2.27-.06-2.73-.06-.1 0-.12.08-.12.19v4.52c0 1.33.35 1.61 2.31 1.61a4.88 4.88 0 0 0 1.81-.23c.5-.23.73-.63.87-1.42 0-.21.08-.29.21-.29s.15.15.15.35a15.07 15.07 0 0 1-.25 2.13c-.13.5-.31.5-1 .5-2.9 0-4.19-.12-5.33-.12-.44 0-1.65.06-2.42.06-.25 0-.38-.06-.38-.19s.08-.15.31-.15a3.16 3.16 0 0 0 .69-.08c.38-.08.48-.5.56-1.06.1-.81.1-2.33.1-4.1zM121.29 86.51c-.19 0-.26.07-.33.3l-2 5.3a7.2 7.2 0 0 0-.56 2.26c0 .67.33 1.15 1.48 1.15h.56c.44 0 .56.07.56.3s-.22.37-.63.37c-1.19 0-2.78-.11-3.93-.11-.41 0-2.45.11-4.38.11-.48 0-.7-.07-.7-.37s.15-.3.45-.3a11.24 11.24 0 0 0 1.15-.07c1.71-.22 2.41-1.48 3.15-3.34l9.31-23.29c.44-1.08.67-1.48 1-1.48s.56.33.93 1.19c.89 2 6.82 17.17 9.2 22.81 1.41 3.34 2.48 3.86 3.26 4a8.13 8.13 0 0 0 1.56.15c.3 0 .48 0 .48.3s-.33.37-1.71.37-4 0-7-.07c-.67 0-1.11 0-1.11-.3s.15-.3.52-.33a.6.6 0 0 0 .33-.85l-3-7.86a.36.36 0 0 0-.37-.26zm7.57-1.85c.19 0 .22-.11.19-.22l-3.34-9.16c0-.15-.07-.33-.19-.33s-.19.19-.22.33l-3.41 9.12c0 .15 0 .26.15.26zM147.59 73.65c.09-.5.27-.77.5-.77s.42.15.8.92L157 90.53l8.07-16.94c.21-.47.39-.71.65-.71s.44.3.53.92L169 92.14c.27 1.87.56 2.73 1.45 3a5.93 5.93 0 0 0 1.84.3c.27 0 .47 0 .47.21s-.36.33-.77.33c-.74 0-4.84-.09-6-.18-.68-.06-.86-.15-.86-.33s.12-.24.33-.33.27-.44.15-1.28l-1.85-13.06h-.12l-6.47 13.47c-.68 1.39-.83 1.66-1.1 1.66s-.56-.59-1-1.48c-.71-1.36-3.06-5.9-3.41-6.74-.27-.62-2-4.36-3.09-6.59h-.12l-1.54 11.81a11.79 11.79 0 0 0-.09 1.39c0 .56.39.83.89.95a5.74 5.74 0 0 0 1.25.15c.24 0 .44.06.44.21s-.27.33-.71.33c-1.25 0-2.58-.09-3.12-.09s-2 .09-2.94.09c-.3 0-.53-.06-.53-.33s.18-.21.47-.21a3.82 3.82 0 0 0 .89-.09c.83-.18 1.07-1.34 1.22-2.34zM177.44 82.14c0-4.51 0-5.34-.06-6.29s-.3-1.48-1.28-1.69a6.12 6.12 0 0 0-1.16-.09c-.33 0-.5-.06-.5-.27s.21-.27.65-.27c1.57 0 3.44.09 4.27.09h7.42a11.81 11.81 0 0 0 1.28-.18 2.78 2.78 0 0 1 .48-.12c.15 0 .18.12.18.27a19.13 19.13 0 0 0-.24 1.93c0 .3-.09 1.6-.15 2 0 .15-.09.33-.3.33s-.27-.15-.27-.41a3.18 3.18 0 0 0-.18-1.07c-.21-.53-.5-.89-2-1.07-.5-.06-3.62-.12-4.21-.12-.15 0-.21.09-.21.3v7.51c0 .21 0 .33.21.33.65 0 4.07 0 4.75-.06a2.07 2.07 0 0 0 1.42-.44c.21-.24.33-.39.48-.39s.21.06.21.24-.15.65-.24 2.17c-.06.59-.12 1.78-.12 2s0 .56-.27.56a.24.24 0 0 1-.27-.27 7.84 7.84 0 0 0-.12-1.07c-.15-.59-.56-1-1.66-1.16-.56-.06-3.5-.09-4.21-.09-.15 0-.18.12-.18.3V92.05c.06 2 .53 2.49 3.56 2.49a7.53 7.53 0 0 0 2.79-.36c.77-.36 1.13-1 1.34-2.2.06-.33.12-.44.33-.44s.24.24.24.53a23.26 23.26 0 0 1-.39 3.29c-.21.77-.47.77-1.6.77-4.48 0-6.47-.18-8.22-.18-.68 0-2.55.09-3.74.09-.39 0-.59-.09-.59-.3s.12-.24.47-.24a4.86 4.86 0 0 0 1.07-.12c.59-.12.74-.77.86-1.63.15-1.25.15-3.59.15-6.32zM196.2 82.14c0-4.51 0-5.34-.06-6.29s-.3-1.48-1.28-1.69a6.12 6.12 0 0 0-1.16-.09c-.33 0-.5-.06-.5-.27s.21-.27.65-.27c1.57 0 3.44.09 4.07.09 1 0 3.26-.09 4.18-.09a9.49 9.49 0 0 1 5.46 1.28 5.14 5.14 0 0 1 2 4.07c0 2.2-.92 4.21-3.92 6.65 2.64 3.32 4.69 6 6.44 7.8a5.91 5.91 0 0 0 3.32 2 4.7 4.7 0 0 0 .83.09c.24 0 .36.09.36.24s-.21.3-.56.3h-2.82a6 6 0 0 1-3.18-.56c-1.28-.68-2.4-2.08-4.06-4.36-1.19-1.63-2.55-3.65-2.94-4.1a.62.62 0 0 0-.53-.21l-2.58-.06c-.15 0-.24.06-.24.24v.42c0 2.76 0 5.1.15 6.35.09.86.27 1.51 1.16 1.63a13.71 13.71 0 0 0 1.45.12c.24 0 .36.09.36.24s-.21.3-.59.3c-1.72 0-3.92-.09-4.36-.09s-2.43.09-3.62.09c-.39 0-.59-.09-.59-.3s.12-.24.47-.24a4.85 4.85 0 0 0 1.07-.12c.59-.12.74-.77.86-1.63.15-1.25.15-3.59.15-6.32zm3.5 2.34c0 .33.06.45.27.53a7.83 7.83 0 0 0 2.26.3 3 3 0 0 0 2.11-.5c.89-.65 1.75-2 1.75-4.45 0-4.21-2.79-5.43-4.54-5.43A6.53 6.53 0 0 0 200 75c-.21.06-.27.18-.27.42z"/><path class="cls-1" d="M218.6 82.14c0-4.51 0-5.34-.06-6.29s-.36-1.51-1-1.66a4.22 4.22 0 0 0-1.07-.12c-.3 0-.47-.06-.47-.3s.24-.24.71-.24c1.13 0 3 .09 3.86.09s2.49-.09 3.62-.09c.39 0 .62.06.62.24s-.18.3-.48.3a5 5 0 0 0-.89.09c-.8.15-1 .65-1.1 1.69s-.06 1.78-.06 6.29v5.22c0 2.88 0 5.22.12 6.5.09.8.3 1.34 1.19 1.45a12.55 12.55 0 0 0 1.51.12c.33 0 .48.09.48.24s-.24.3-.56.3c-2 0-3.83-.09-4.63-.09s-2.55.09-3.74.09c-.39 0-.59-.09-.59-.3s.12-.24.48-.24a4.86 4.86 0 0 0 1.07-.12c.59-.12.77-.62.86-1.48.15-1.25.15-3.59.15-6.47zM232.16 93.14a11.75 11.75 0 0 1-.16-16.88c2.14-2 5-3.15 9.38-3.15a29.31 29.31 0 0 1 4.3.3c1.13.15 2.08.42 3 .5.33 0 .45.18.45.36s-.09.59-.15 1.63 0 2.61-.09 3.2-.09.68-.36.68-.3-.24-.3-.65a4.24 4.24 0 0 0-1.23-2.72c-1-1-3.29-1.84-6-1.84a7.74 7.74 0 0 0-5.58 1.84c-2.17 2-2.73 4.81-2.73 7.69 0 7.06 5.37 10.56 9.35 10.56 2.64 0 4.24-.3 5.43-1.66a5 5 0 0 0 1-2c.09-.47.15-.59.39-.59s.27.21.27.45a28.18 28.18 0 0 1-.65 3.95 1 1 0 0 1-.77.86 17.19 17.19 0 0 1-5.34.68c-4.09.03-7.51-.86-10.21-3.21zM257.53 88.22c-.15 0-.21.06-.27.24l-1.6 4.24a5.76 5.76 0 0 0-.45 1.81c0 .53.27.92 1.19.92h.45c.36 0 .44.06.44.24s-.18.3-.5.3c-.95 0-2.23-.09-3.15-.09-.33 0-2 .09-3.5.09-.39 0-.56-.06-.56-.3s.12-.24.36-.24a9 9 0 0 0 .92-.06c1.36-.18 1.93-1.19 2.52-2.67l7.45-18.64c.36-.86.53-1.19.83-1.19s.44.27.74.95c.71 1.63 5.46 13.74 7.36 18.25 1.13 2.67 2 3.09 2.61 3.23a6.52 6.52 0 0 0 1.25.12c.24 0 .39 0 .39.24s-.27.3-1.36.3-3.23 0-5.61-.06c-.53 0-.89 0-.89-.24s.12-.24.42-.27a.48.48 0 0 0 .27-.68l-2.37-6.29a.29.29 0 0 0-.3-.21zm6.05-1.48c.15 0 .18-.09.15-.18l-2.67-7.33c0-.12-.06-.27-.15-.27s-.15.15-.18.27l-2.73 7.3c0 .12 0 .21.12.21z"/><path class="cls-1" d="M278.77 91.93c.06 2.31.44 3.09 1 3.29a4.72 4.72 0 0 0 1.54.21c.33 0 .5.06.5.24s-.27.3-.68.3c-1.93 0-3.12-.09-3.68-.09-.27 0-1.66.09-3.2.09-.39 0-.65 0-.65-.3s.18-.24.47-.24a5.27 5.27 0 0 0 1.34-.15c.77-.24.89-1.1.92-3.68l.31-17.6c0-.59.09-1 .39-1s.59.39 1.1.92 4.87 5.22 9.2 9.52c2 2 6 6.29 6.53 6.77h.14l-.3-13.32c0-1.81-.3-2.37-1-2.67a4.85 4.85 0 0 0-1.57-.18c-.36 0-.47-.09-.47-.27s.33-.27.77-.27c1.54 0 3 .09 3.59.09.33 0 1.45-.09 2.91-.09.39 0 .68 0 .68.27s-.18.27-.53.27a3.24 3.24 0 0 0-.89.09c-.83.24-1.07.86-1.1 2.52l-.33 18.72c0 .65-.12.92-.39.92s-.68-.33-1-.65c-1.87-1.78-5.67-5.67-8.75-8.72s-6.53-6.91-7.06-7.48h-.09zM133.9 108.44a5.41 5.41 0 0 0-1.37-2.63 3.28 3.28 0 0 0-1.48-.33c-.37 0-.59 0-.59-.33s.3-.33.82-.33c1.93 0 4 .11 4.3.11s2-.11 4.12-.11q.78 0 .78.33c0 .3-.3.33-.67.33a2 2 0 0 0-.93.15c-.33.15-.41.41-.41.82a24.35 24.35 0 0 0 .82 3.41c.63 2.45 4.08 13.69 4.75 15.76h.11l7.2-19.33c.41-1 .63-1.34.93-1.34s.59.56 1.08 1.74l7.72 18.66h.11c.67-2.49 3.63-12.28 4.93-16.62a7.89 7.89 0 0 0 .37-2.15c0-.59-.33-1.11-1.78-1.11-.37 0-.63-.11-.63-.33s.3-.33.85-.33c2 0 3.52.11 3.86.11s1.85-.11 3.08-.11c.41 0 .67.07.67.3s-.19.37-.52.37a4.07 4.07 0 0 0-1.3.19c-.89.33-1.3 1.82-2.08 3.93-1.71 4.67-5.6 16.47-7.42 22-.41 1.3-.59 1.74-1.08 1.74s-.59-.45-1.15-1.82L151.26 113h-.07c-.7 1.89-5.64 15-7.23 18.43-.7 1.52-.89 2-1.34 2s-.56-.41-.85-1.37zM175.19 124.17c-.15 0-.21.06-.27.24l-1.6 4.24a5.75 5.75 0 0 0-.45 1.81c0 .53.27.92 1.19.92h.44c.36 0 .45.06.45.24s-.18.3-.5.3c-.95 0-2.23-.09-3.15-.09-.33 0-2 .09-3.5.09-.39 0-.56-.06-.56-.3s.12-.24.36-.24a9.09 9.09 0 0 0 .92-.06c1.37-.18 1.93-1.19 2.52-2.67l7.45-18.65c.36-.86.53-1.19.83-1.19s.45.27.74.95c.71 1.63 5.46 13.74 7.36 18.25 1.13 2.67 2 3.09 2.61 3.23a6.51 6.51 0 0 0 1.25.12c.24 0 .39 0 .39.24s-.27.3-1.37.3-3.23 0-5.61-.06c-.53 0-.89 0-.89-.24s.12-.24.42-.27a.48.48 0 0 0 .27-.68l-2.37-6.29a.29.29 0 0 0-.3-.21zm6.05-1.48c.15 0 .18-.09.15-.18l-2.67-7.33c0-.12-.06-.27-.15-.27s-.15.15-.18.27l-2.73 7.3c0 .12 0 .21.12.21zM197.07 124.23a6.29 6.29 0 0 0-.68-3.12c-.21-.47-4.18-7-5.22-8.55a7.26 7.26 0 0 0-2-2.17 3 3 0 0 0-1.25-.39c-.24 0-.44-.06-.44-.27s.21-.27.56-.27c.53 0 2.76.09 3.74.09.62 0 1.84-.09 3.17-.09q.45 0 .45.27c0 .18-.21.21-.65.33a.54.54 0 0 0-.42.53 2.74 2.74 0 0 0 .36 1c.42.89 4.57 8 5 8.87.3-.71 4-7.24 4.45-8.16a3.86 3.86 0 0 0 .42-1.54.71.71 0 0 0-.62-.74c-.27-.06-.53-.12-.53-.3s.15-.27.5-.27c1 0 1.93.09 2.79.09.65 0 2.61-.09 3.18-.09.33 0 .53.06.53.24s-.24.3-.56.3a3.21 3.21 0 0 0-1.31.36 4.42 4.42 0 0 0-1.6 1.45 94.6 94.6 0 0 0-5.67 9.44 7.1 7.1 0 0 0-.44 3v2.43c0 .48 0 1.72.09 3 .06.86.33 1.51 1.22 1.63a12.45 12.45 0 0 0 1.48.12c.33 0 .48.09.48.24s-.24.3-.62.3c-1.87 0-3.74-.09-4.54-.09s-2.61.09-3.71.09c-.42 0-.65-.06-.65-.3s.15-.24.47-.24a4.75 4.75 0 0 0 1-.12c.59-.12.86-.77.92-1.63.09-1.25.09-2.49.09-3z"/><path class="cls-2" d="M68.34 101.66l39.37 28.36-15.1-43.08 4.64 29.18-28.91-14.46zM64.97 99.48L38.1 80.59l-15.95 50.37 42.82-31.48zM81.34 49.53L64.55 0 48.6 50.37l6.2 4.33 9.77-31.84.05 39.67 16.72-13zM103.87 51.62v.55s-.3.82-.55 0 0-.87 0-.87a.93.93 0 0 1 .55.32zM94 53.58s-.16.1.22 0 .09-.41.28-.56-.5.19-.5.19z"/><path class="cls-2" d="M131.81 49.21c.07-.15.22-.22.15-.36l.51.36.22-.58.15 1.46a12.51 12.51 0 0 0-1.53.51c.36.15.29.66.29 1.24l-.15.15c-.22-.15-.36-.51-.73-.36s-.15.36-.15.51-.29-.07-.36-.15c-.44 1-2.48.66-1.75 2.26-.51 0-.88-.58-1.39 0 .8.07-.15.66.15 1.09h-.29c.07-.15.22-.22.15-.36-.58-.36-.87.66-1.6.15-.29.15-.07.51-.15.73l.36.36c-.51-.07-.22.51-.51.66l.15.22c-.29.8-1.17-.07-1.39-.36.22.51-.73.66-1.09 1l.36.36c-1.24.29.36-1.31-.87-.73v-.29c-.73-.66-1.53.44-1.24.88 0 .87-.66-.36-.87.51.15-.29-.15-.51-.29-.73-.36.8-.15.95.15 1.6-1-.51-1.17 1.31-2.26.66l-.36.36.36.36-.22.15.36.36-.87.87.36.36c.07.36-.07-.36-.36-.15-.51.44-.8 2-2.11 1.39l-.15-.22c-.51.66.15 1.31.15 2 .66 0 .29-.87.88-.87l.22.15c-.51.07-.66.66-.73 1.09-.36-.07-.66-.66-1-.22-.07.29.22.36.36.51.36.36-.66.07-.36-.29h-.73l.22-.22a2.56 2.56 0 0 1-1.46-.87c.36-.66-1.38-1.75-.51-2.41.29-.44.73-1 .51-1.46-.22-.07.8 0 1.09-.66 0-.36-.22-1.24-.51-1.09-.15-.22-.36-.15-.58-.15-.73 1-.8 2.62-1.9 2.62-.15.44-.29 1.09-.87 1.24.58.07.07.44.36.66-.07.36-.58.15-.87.22l.51-.73c-.22-.58-.95-.36-1.24-.15s-.44.22-.36.51l.36.36-.15.15a1 1 0 0 1 .36.87.61.61 0 0 0-.59.26v.51c-.22-.07-.29.22-.51.36a.76.76 0 0 1 .51 1c-.95.07-.07 1.82-1.38 1.75.15.36-.22.58-.36.73s-.15.29-.15.51c-1.46 0-2.11-1.31-3.13-2-.29-1.39.44-1.9.51-2.92l.36.29c.15-1.17 1-2.7 1.24-3.79-1.31.87-1.09-1.68-2.33-.58 0 .44.8.95 0 1.24h-.29c.07-.22-.22-.36-.36-.51a1.55 1.55 0 0 0-.22 1.75h.22v.36c-.58.44-.29 1.46-.87 2.11-.15-1-.87-.07-1.24-.36l-.51.51c.15.22.44.36.36.73l-.22.15v.62c.73 0 .5-.55 0-.62-.15 0-.44-.07-.51.15a.66.66 0 0 0 .51.87c-.66.15-.51.87-1 1.24-.51-.51-.8.73-1.38.51.29 1-1.31.95-.73 1.75-.29.44-1.24-.07-1 .73-.29-.07-.36.22-.58.36 1.75.87.07 1.6 0 2.77-.87 1-1.6 2.33-2.77 2.11A3.16 3.16 0 0 1 90.69 76c.29 0 .44-.36.66-.51a1 1 0 0 0-1-.22c-.15-2.19 2.33-2.62 1.9-4.74a1.36 1.36 0 0 0 .75-1.42c.15.07.29-.07.36-.15.15-.29-.22-.51-.36-.73l-.87.73.15.15c-.51.44-.87 2-1.75 2.11-.07-.29.22-.36.36-.51-.29-.66-1-.22-1.53-.36-.36.15-.15.51-.22.73.95.29.8 1.09.36 1.75l-.15-.22c-.36.29-.15 1-.22 1.24.29.29-.51.95-.66 1.39-1.9.22 0 2.41-1.6 3-.44 1.39-1.9 2-1.6 3.64-.66 0-.07.8-.51 1.09s-.44 1.6-1.39 1.39a1.81 1.81 0 0 0-.51 1.6l-1.09-.22.22-.15c-1-.29.15-1.09-.73-1.6l-.36.36c.15-.58-.51-.8-.87-1.24.58-.44.36-1.09.87-1.53-.51-1.24.95-2 1.24-3.21l.22.22c.15-.22.51-.44.51-.73h-.51l.51-.51c-.07-.36.58-1.17.36-1.6.95-.15 0-1.39 1-1.75v-2.26c.58 0 .36-.66.51-1a.34.34 0 0 0 .36-.22V70c.15.07.29-.07.36-.15v-.36c.95-.15 1-1.17 1.53-1.89-.66-.44-.07-1.09-.87-1.46a2.3 2.3 0 0 0-1.17 1.09v.51c-.22.07-.29-.07-.36-.15-.36.51-.95 1.09-.36 1.75.15-.22.51-.44.36-.73l.15.15.22-.15c-.44.8-1.31.8-1.09 1.9-.15 0-.44 0-.51.22v.36a.38.38 0 0 0-.51.51v.51c-1.53-.22-1.31 2.26-2.62 2.48v.66l-.51-.51c-.87.8.07 2.11-.36 2.48L79.1 77c-1.38.44-.22 1.24-.51 2-.44-.07-.66.15-1 .29l.15.22c-.22.07-.15.36-.15.51.29.58-.51 1.68-.73 2.77-1.31 1.39-.07 4.37-2.26 4.74v-.36c.15.07.29-.07.36-.15.15-.73-.73-.51-1.09-.73l.22-1.17.15.15c.15-.73-.22-1-.15-1.89 1.09-.15 0-1.17.51-1.6a9.81 9.81 0 0 0 .73-2.11c.66-.07.07-1 .51-1.39l-.22-.15c.66-.15.87-.58 1.46-.87 0-.51-.58-.36-.36-.87h.36l1-2.33c-.73-.44-.22-2.48-.15-3.64S79.1 69 79 68.09c1.24-.36-.29-1.53.73-2.11-.15-.07-.22-.22-.36-.15-.44 1.17-2 1.75-2.26 3.13-.22 0-.58-.15-.73.15a4.36 4.36 0 0 1-1.24 2.48c-.15 1.82-2.55 2.62-1.9 4.37-1.75.8-.22 4.3-3.13 3.5.73-1.53.58-3.35 1.75-4.74 0-1.46 1.24-1.6 1.17-3.13.44-.44.87-.8.73-1.39a7.52 7.52 0 0 0 1.75-2.62c.66-.58.95-1.82 1.75-2.33-.07-.07-.15-.22-.36-.15.44-.95 1.75-1.39 2-2.62l.51-.73.36.36c1.09-1.31.73-3 2.26-4 .66.22.73-1.82 1.9-.87-.66 1.17 1.17 1.38 0 2.62-.95 0-.07 1-.36 1.39.58 1.17-.22 2.7-.66 3.86-.29.36-1.17 0-1.38.73.8.29-.22 1.46.87 1-.22.07-.22.36-.22.51.66.29.95-.58 1.39-.87.07-.8.58-.22.87-.87-.15-.22 1-1.53 1.09-2.26l1.24-1.9.15.15a10 10 0 0 1 1.29-2.6l1.09-.15c0-.22-.15-.58.15-.73-.07-.07-.15-.22-.36-.15.36-1.68 2-1.82 2.26-3.5 1.31-.22.51-2 2-1.75-.22-.07-.12.23-.19.3l.48-.35-.15.34c-.44 1.53 1.82.36 2 1.24a.61.61 0 0 0-.58.22c.15.66-1 .22-1 1v3c-.73.36-.73 2-.73 2.77a6.18 6.18 0 0 1 2.33-2.41c-.15-1.09 1.82-.61 1.17-1.75l.19-.22c.07.22 0 .51.17.51a1 1 0 0 0 .29-1.37c.73-.44 1.24-1.75 1.75-2.41.73-.73 1.46-1.17 1.75-2 .29.07.36-.22.51-.36.44.22.51.73 1.09.22h.15s.33.69.15.92c-.31.39-.44.54-.51.61.44 1 1.24 1.31.73 2.48.22 1.09-1.6 1.68-.22 2.48.73-.36 1.24-1.53 2.11-.87a11 11 0 0 1 3.5-4.23l.36.36.15-.22-.15.22c.8.73 1.39.73 1.9 1.75.22-.22.51-.44.36-.73l.22.22.15-.22.36.51c-.29.22-.66.07-.87.36a14.19 14.19 0 0 0 2.41.51c-.36-.51-.22-.07 0-.66.22-.07.22-.36.22-.51l.51.51a1 1 0 0 0 .36-.87l-.22-.22c.44-.29.44-.73 1.09-.66l.15.15a3.7 3.7 0 0 1 2.48-1.24c.8.51.44 1.9 1.53 1.46-.29 1.17.8 0 .87.87l.22-.22c-.22.07-.22.36-.22.51a.61.61 0 0 0 .58.22c.73-.66 2-2.41 3.13-2.11.15-.22.44-.36.36-.73 0 .22-.07.44.15.58s.44 0 .51-.22h-.15V52h.2a.4.4 0 0 0 .22.36c.15 0 .22-.07.29-.22.15-.58-.66-.51 0-.87h1.24a.34.34 0 0 0 .22.36l.15-.15-.15.15c.36.29 1 .07 1.38.51.22-.07.15-.29.15-.51a1.41 1.41 0 0 0-1.39-.51l.15-.73.22.22c.58-.44.58-1.09 1.38-1.09l.15.22c.22-.07.22-.36.22-.51.97-.23 1.99-1.77 2.58-.02zm-4.23 2.92h.22v-.29h-.22zm-11.68 1.8l-.33-.22.55-.55c0 .22.11.65-.22.76zm7.52-.19h.15v-.36h-.15zm-.89 1c.55.55-.33.77-.33 1.31L123 55c-.25.08-.36-.14-.47-.25zm1.18.58h.22v.29h-.22zm-12.53 1.18c-.44.51.22-.29-.36-.15v-.51h.36zm1.75.87l.15.36c.07-.07.22-.15.15-.36zm-10.72 1.24h.22v.51h-.22zm-13.49 1.1a6.47 6.47 0 0 0 .22 1.38h.15c.22-.73-.36-1.31.36-1.6-.29 0-.36.29-.73.22zm22.74.51h.22v.36h-.22zm-16.13.65c.27.5.14-.41 1 0 .39.19-.36-.28-.36-.28l-.46-.13s-.44-.1-.17.4zm-12.72 1.8c-.12.56.44 0 .44 0s.24-1.22 0-.87a.24.24 0 0 1-.44 0 1.65 1.65 0 0 1 0 .87zm8.23.83l-.15.22-.69-.51c.55-.66.25.43.84.29zm.51-.51h.22s.86.47.31-.53-.53.16-.53.16zm-1.16 1.48c.5-.46.74-.09.74-.09l-.09-.88h-.65s-.19 1.15 0 .96zm10.63-.38l.54-.12-.15-.41-.39.16zm-8 2.26c-.22-.07-.29.07-.36.15-.07.95.15-.44-.36-.15l.51-.51zm.67 0s.11.52.36.27c.68-.68 0-.55 0-.55a.83.83 0 0 0-.55-.23c-.41-.03.17.49.17.49zm-10.3 3.37s.05.2.31 0 0-.42 0-.42-.65-.73-.31 0c.18.4 0 .42 0 .42zM82.56 71v-.84l-.42 1.47zM69.17 83.86l.54.6L69 83l1.18.28c-.66-.15-.82.33-1.01.58zM67.14 81.84l1.62.21-.38.51-1.24-.72zM65.23 83.18c.44-.07.22-.24.59-.76L65.5 82l1.18.28zM63 81.16c.23-.72-.48-1-.87-1.23-3.77-.12 1.77.42 2.53 1zM59 75.79l-.2.3c-1.54.18.58-1-1.54-1.43 0 .44-.58.44-.85.56.3-.87-.15-.37 0-1.3l3.48 2.27.11-.26c.37.93 1.35.43 1.63 1.39-1.17.03-1.36-1.51-2.63-1.53zM56.84 72c-.86-.14.11-1.34-1-.89s1.09-.92 1.25.31zM59.63 79.49c-1.86-1-1.95 0-1.25-1.92l.17 1.22c.45.44 1.03-.25 1.08.7zM55.66 73.52c-.19.07-.59.13-.58.44l.11.28c-.54 0-.87-.84-1.09-1.39.5-.63 1.26.46 1.56.67zM53.88 70.6c.06-.67-.61-.72-1.06-1 .53.11 1.47.06 1.75.75zM23 50.23l.28-.65-.83-.2 1.11.09c1 .58-.87-.3-.28.65l1.09.32c-.2.38-1.09.31-1.37-.21z"/><path class="cls-2" d="M66 84.55c-10-3-21.59-8.66-31.27-13.34-.52.14-1.14-.69-1.64-.71-10.25-4.66-19.25-9.1-30.72-9.61-.07-.19-.09-.4-.3-.38l-.31.12c-.12-.31-.12-.67-.42-.69a1 1 0 0 0 0-.87l-.43-.19c.25-.82-.7-.15-.91-.5.58-.88.72-2.15 1.39-3 .31.24.43-.17.57-.37 0-.27-.31-.24-.48-.31l-.31.12c1.48.13.73-1.94 2.29-2-.09 0-.2-.14-.3 0 .56-.94 2.15-.71 2-2.16.16-.14.52-.14.54-.43 3.85-1.32 8.48-1.38 12.49-1 .66 0 1.29.35 1.9.1l-.05.59a3.33 3.33 0 0 0 2.08.18l.17.43c-.16-.22-.42 0-.61.1l-.14.2c1.09.21 2.37.56 3.44.71l-.17-.79c.48 0 1.1.42 1.35 0 0 .09-.11.26 0 .36s.2.14.36 0l.07-.17c.19.28 1.27-.22 1.21.88h-.12c0 1.37 1.71.68 2.19 1.71.28.17.54-.07.82-.11a.55.55 0 0 0 0-.57c-.37.15-.78-.34-1.15-.19l-.17-.43c.83-.62 1.07.72 1.76.45l1.11.63a.71.71 0 0 0 0 1.22h.48c-.24.31-.11.62-.14.91.23 0 .68.09.79-.17l-.17-.43c.52.22.59-.67 1.05-.78 1.45 1.29 3.16 1.1 4.26 2.6l.14-.2c0 .15.16.22.25.26l.31-.48c.8 0 .71 2.15 1.47 1 .25-.1-.26 1 .52.94.22-.16.41-.23.52-.49l-.43-.19c1.37 0 1.17 2 2.55 1.71.53.43.48 1.74 1.28 1.06 0 .23-.25.46 0 .66.72.72 1.61.08 2.2.84a3.19 3.19 0 0 0 1.65 1.63l.11-.26c.38 1.14.61-.1.9 1 .66.38 1 1.82 1.84 1.2-.32 1 1.41 1.37 2.06 2.12l.3.74a11.73 11.73 0 0 0-2.5-1.59c-.41.59.57.35.59.77l-.85-.52c.15 0 .16-.14.26-.25-.06-.33-.36-.36-.56-.5-.46.11.09.4-.19.43-.72-.36-1.09-.93-1.84-1.2a.55.55 0 0 0 0-1c-.75.09-1-1-1.71-.68l.1.61c-.36 0-.53-.43-1.09-.57-.87.7.46 1.32 1 1.48.14.16.38.06.51 0 .57 1.06 2.26 1.54 3 2.76-.15 0-.16.14-.2.22 0 .3.31.24.44.4.19-.07.2-.22.23-.31.21 0 .31.24.36.36l-.19.07.2.5L50 68.2c0 .15-.27.4-.07.53l.2.14-.2-.14c-.21.37.21.7.06 1.05 1-.75.53.79 1.38 1-.12 0-.16.14-.24.31 0 .45.46.25.72.36-.16.14-.27.75.3.74.15 0 .16-.14.2-.22l1.16.76-.2-.14c0 .23-.27.4-.14.56l.26.11-.56-.5-.11.26-.2-.14c-.56.94 1 .74 1 1.55a1.24 1.24 0 0 1 .9 1l-.2-.14c-.31.48-.29.9.23 1.13l.43.19c.38-.3.16-.85.2-1.3.27.32.68.45.85.88a1.2 1.2 0 0 0-.76.8c.5-.2.53.43.48.67-.09 0-.26-.11-.36 0s0 .42.1.61l.2.14v-.23c-.15 0 .64.17.74.42l.07-.17c.35-.21.42 1.77 1.31 1.48 0 .36.3.38.49.52l.14-.2a13.64 13.64 0 0 1 1.51 1.26.41.41 0 0 0 .06-.38c.38-.3.53.43.85.52.57 0-.06.74.56.85l.78.33.14-.2a2.2 2.2 0 0 0 1.07 1.08c.16-.14.09-.32 0-.51.12 0 .4-.09.38-.3.11.82.59.77 1.15 1.26.42-.61 1.24.21 1.12.41zM54.33 77l.83.2-.65.26zm-1.88-4.08l.12-.41-.67.49zm-2.86-5.74l-.17.28c.12 0-.15.05 0 .21s-.19-.22-.35-.09l.46.12-.11.26c.25-.1.37.57.31.24.25-.1.28-.54.79-.17-.19-.46-.6-.59-.93-.88zm3.88 8.22l.2-.3c-.72.07-1.41-1.37-2-.48.15.37.5 1 1.09.85a.83.83 0 0 1 0-.85zm-7-12.64l-.47-.22v.23c-.46-.25-1-.68-.85-1.24A2.52 2.52 0 0 0 46 62c-.21 0-.22.16-.26.25.14.16.38.06.51 0s0 .21 0 .36c.9-.07.09.4.9.64l-.8-.4zm2.18 5.5l-.11-1.32-.39-.74c.27.67-.76 1.73.49 2.03zm-5.27-8c-.1.11.44.77.15 1.28 1.22.5 1.08.11 1.25 0-.01-.36-1.21-1.12-1.41-1.26zm-.68.09c-.52-.87 1.1-.62-.51-1.5.11.1-.62.37-.64.51-.2-.14-.63-.32-.43-.54l.19-.07c-.23 0-.93-.14-1.09-.36-.4 1.68.61.41.91.44-.14.2-.14.56-.38.65 0 .09.42.07.39.52.12 0 .49-.29.48-.51zm-3.17-2.9l-.73.22c.49-.93-2-.79-2.24-2.19-1.73 1 .31.83.58 2 .23 0 .4.27.62.11 0-.12-.21-.35 0-.48.33.3.43-.17.74.06.12.13-.26.77.41 1.32l.77-.66-.58.12c-.1-.12.38-.39.42-.48zm-4.31-2.65l-.31.48-.91-.5.42.33c-.75 1 1.37.39.6 1l.12.31h.12c.17-.28.63-1.09 0-.84-.26-.37.02-.58-.05-.76zm-15.39-4.2l-.07-.19c.5-.63.5.45 1 .13-.27.13-.64-.26-.94.07z"/></svg>